<svg xmlns="http://www.w3.org/2000/svg" xmlns:xlink="http://www.w3.org/1999/xlink" viewBox="0 0 128.6 118.25"><defs><style>.cls-1{fill:#006cff;}.cls-2{fill:url(#Безымянный_градиент_2);}.cls-3,.cls-4,.cls-5{fill:#fdfdfd;isolation:isolate;}.cls-3{opacity:0.2;}.cls-4{opacity:0.3;}.cls-5{opacity:0.5;}</style><linearGradient id="Безымянный_градиент_2" x1="32.91" y1="-3183.22" x2="96.9" y2="-3183.22" gradientTransform="matrix(1, 0, 0, -1, 0, -3151.17)" gradientUnits="userSpaceOnUse"><stop offset="0" stop-color="#006cff"/><stop offset="1" stop-color="aqua"/></linearGradient></defs><title>auth-logo</title><g id="Layer_2" data-name="Layer 2"><g id="Layer_1-2" data-name="Layer 1"><path class="cls-1" d="M113.23,118.25a15.37,15.37,0,1,1,15.37-15.37A15.39,15.39,0,0,1,113.23,118.25Zm0-27.76a12.39,12.39,0,1,0,12.38,12.39A12.41,12.41,0,0,0,113.23,90.49Z"/><path class="cls-1" d="M19.75,118.25H0V87.51H19.75l7.18,7.77-8.48,7.6,8.48,7.59ZM3,115.26H18.44l4.24-4.59L14,102.88l8.7-7.8-4.24-4.59H3Z"/><polygon class="cls-1" points="84.04 118.25 81.06 118.25 81.06 90.49 72.19 90.49 72.19 87.51 84.04 87.51 84.04 118.25"/><rect class="cls-1" x="88.17" y="87.51" width="8.73" height="2.99"/><polygon class="cls-1" points="50.63 118.25 50.63 90.49 41.76 90.49 41.76 87.51 53.61 87.51 53.61 118.25 50.63 118.25"/><rect class="cls-1" x="57.74" y="87.51" width="8.72" height="2.99"/><rect class="cls-1" x="32.82" y="87.51" width="2.99" height="30.74"/><polygon class="cls-2" points="80.88 64.1 96.9 48.07 80.88 32.05 96.9 16.02 96.9 16.02 96.9 16.02 96.9 16.02 80.88 0 80.88 0 32.91 0 32.91 64.1 80.88 64.1"/><polygon class="cls-3" points="48.83 32.05 64.85 0.1 80.88 32.05 64.85 64.1 48.83 32.05"/><polygon class="cls-4" points="32.91 64.1 32.91 32.05 80.88 32.05 32.91 64.1"/><polygon class="cls-5" points="32.91 0 32.91 32.05 80.88 32.05 32.91 0"/></g></g></svg>