<svg xmlns="http://www.w3.org/2000/svg" viewBox="0 0 55.12 42.16"><defs><style>.cls-1{fill:#006cff;}.cls-2{fill:#fff;}</style></defs><title>Asset 7</title><g id="Layer_2" data-name="Layer 2"><g id="Layer_1-2" data-name="Layer 1"><path class="cls-1" d="M37.72,29A3,3,0,0,0,40,31.79V27.64a6.68,6.68,0,0,1-1.67-.5,3.42,3.42,0,0,1-1.21-5.53,3.16,3.16,0,0,1,.43-.38A5,5,0,0,1,40,20.3V19H42v1.31c.22,0,.44.08.66.14A4.18,4.18,0,0,1,46,24.56l-2.12.16a3.48,3.48,0,0,0-.31-1.23A2.19,2.19,0,0,0,42,22.37V26a11.86,11.86,0,0,1,2,.59,3.86,3.86,0,0,1,1.74,1.37,4.31,4.31,0,0,1,.26.47A3.53,3.53,0,0,1,46.12,31a4.21,4.21,0,0,1-1.67,2.11A5.91,5.91,0,0,1,42,34V35.2H40V33.92a4.86,4.86,0,0,1-4.32-4.77L37.72,29Zm.83-15.1a25.17,25.17,0,0,1-3.4,4.21,24.46,24.46,0,0,0-3.08,3.74,18.4,18.4,0,0,0-2.36,5.71,20.8,20.8,0,0,0-.4,6.09c.23,3.42,4.41,3.62,7.14,4l1.82.18c3,.22,14.46.77,14.73-4.31a19.73,19.73,0,0,0-2.76-11.64,24.71,24.71,0,0,0-3.08-3.76,24,24,0,0,1-3.39-4.18ZM37.3,9.79l-2.49-8c3-2,5-2.4,8.18-.56a6.74,6.74,0,0,0,3.93,1l-2,7.64Zm1.61-2.1h4.33l1.12-3.6A9.13,9.13,0,0,1,42,3c-1.27-.74-2.53-1.47-4.72-.3l1.68,5Zm-5.29,9A21.21,21.21,0,0,0,37,12.34l.3-.56H45l.3.56a20.34,20.34,0,0,0,3.38,4.28A26.24,26.24,0,0,1,52,20.73a21.83,21.83,0,0,1,3.06,12.82c-.37,7-12.1,6.65-17,6.29-.66-.05-1.3-.11-1.92-.19-3.9-.47-8.63-.83-9-5.89a22.87,22.87,0,0,1,.46-6.69,20.22,20.22,0,0,1,2.62-6.35,25.75,25.75,0,0,1,3.32-4.07ZM42,31.9h0a3.41,3.41,0,0,0,1.19-.43,2.07,2.07,0,0,0,.76-.95,1.76,1.76,0,0,0-1.06-2.2A3.94,3.94,0,0,0,42,28V31.9ZM40,22.35l-.13,0c-.14,0-.28.07-.41.12a1.5,1.5,0,0,0-1.14,1.42A1.27,1.27,0,0,0,38.8,25,3.5,3.5,0,0,0,40,25.5V22.35Z"/><path class="cls-1" d="M15.81,35.74h0a21.05,21.05,0,0,1-4.58,4.94c-1.93,1.43-3.79,1.9-5.12,1.07s-3.21-2-4.67-3S-.27,36.07.18,33.7A23,23,0,0,1,4.31,25V13.9C4.32,12.34,5.7,11,8,10.14a23.42,23.42,0,0,1,15.07,0c2.25.87,3.64,2.2,3.64,3.76v5.35a21.73,21.73,0,0,1,7.84,1.24c2.25.88,3.64,2.2,3.64,3.77V35.42c0,1.56-1.39,2.88-3.64,3.76a23.56,23.56,0,0,1-15.07,0c-2.1-.82-3.45-2-3.62-3.44Zm2.66-5.05a6.67,6.67,0,0,0,1.71.91,21.57,21.57,0,0,0,13.57,0C35.16,31,36,30.4,36,29.79c0-.84,0-1.68,0-2.51h0A11.05,11.05,0,0,1,34.5,28a23.56,23.56,0,0,1-15.07,0L19.27,28a17,17,0,0,1-.8,2.73Zm1-4.92c.28.13.54.23.72.3a21.43,21.43,0,0,0,13.57,0c.59-.23,2.31-.91,2.29-1.82,0-.61-.88-1.25-2.29-1.8a21.43,21.43,0,0,0-13.57,0,7.24,7.24,0,0,0-1.61.83,3.82,3.82,0,0,1,.89,2.49ZM16.8,22.08a7.79,7.79,0,0,1,2.63-1.59,19.22,19.22,0,0,1,5.13-1.13c0-.81,0-1.63,0-2.44h0a8.83,8.83,0,0,1-1.54.75A23.42,23.42,0,0,1,8,17.67a9.19,9.19,0,0,1-1.54-.75c0,.84,0,1.69,0,2.52,0,.53.66,1.08,1.75,1.57L8.24,21c1.94-1.43,3.79-1.89,5.12-1.06,1.08.67,2.29,1.45,3.44,2.18ZM5.31,36a21.48,21.48,0,0,0,7.24-11.46c.12-.63.46-2.45-.31-2.92-.52-.32-1.53.08-2.75,1A21.42,21.42,0,0,0,2.24,34.11C2,35.6,2,36.7,2.55,37c.8.47,2.19-.56,2.76-1ZM5.1,38.62c.71.45,1.43.89,2.13,1.35.52.33,1.52-.07,2.75-1a21.48,21.48,0,0,0,7.24-11.46c.29-1.5.22-2.58-.3-2.91l-2.13-1.34h0A9.61,9.61,0,0,1,14.6,25a23.48,23.48,0,0,1-8,12.75,9.62,9.62,0,0,1-1.45.89ZM36,32.8a9.19,9.19,0,0,1-1.54.75,23.42,23.42,0,0,1-15.07,0,9.9,9.9,0,0,1-1.53-.74c0,1.06,0,2.2,0,2.61,0,.62.87,1.25,2.29,1.8a21.43,21.43,0,0,0,13.57,0C35.16,36.67,36,36,36,35.42V32.8ZM8.7,15.72a21.57,21.57,0,0,0,13.57,0c.59-.23,2.32-.92,2.3-1.82,0-.61-.88-1.25-2.3-1.81a21.54,21.54,0,0,0-13.56,0c-1.42.56-2.32,1.2-2.3,1.81,0,.94,1.65,1.56,2.29,1.82Z"/><path class="cls-2" d="M18.47,30.69a6.67,6.67,0,0,0,1.71.91,21.57,21.57,0,0,0,13.57,0C35.16,31,36,30.4,36,29.79c0-.84,0-1.68,0-2.51h0A11.05,11.05,0,0,1,34.5,28a23.56,23.56,0,0,1-15.07,0L19.27,28a17,17,0,0,1-.8,2.73Z"/><path class="cls-2" d="M19.46,25.77c.28.13.54.23.72.3a21.43,21.43,0,0,0,13.57,0c.59-.23,2.31-.91,2.29-1.82,0-.61-.88-1.25-2.29-1.8a21.43,21.43,0,0,0-13.57,0,7.24,7.24,0,0,0-1.61.83,3.82,3.82,0,0,1,.89,2.49Z"/><path class="cls-2" d="M36,32.8a9.19,9.19,0,0,1-1.54.75,23.42,23.42,0,0,1-15.07,0,9.9,9.9,0,0,1-1.53-.74c0,1.06,0,2.2,0,2.61,0,.62.87,1.25,2.29,1.8a21.43,21.43,0,0,0,13.57,0C35.16,36.67,36,36,36,35.42V32.8Z"/></g></g></svg>