<svg xmlns="http://www.w3.org/2000/svg" viewBox="0 0 15.24 17"><defs><style>.cls-1{fill:#006cff;}</style></defs><title>Asset 2</title><g id="Layer_2" data-name="Layer 2"><g id="Layer_1-2" data-name="Layer 1"><path class="cls-1" d="M10.58,17H1.24A1.21,1.21,0,0,1,0,15.83V6.32A.35.35,0,0,1,.35,6a.35.35,0,0,1,.35.35v9.51a.51.51,0,0,0,.54.47h9.34a.51.51,0,0,0,.54-.47V3.76a.51.51,0,0,0-.54-.47H3.73a.35.35,0,0,1,0-.7h6.85a1.2,1.2,0,0,1,1.24,1.17V15.83A1.2,1.2,0,0,1,10.58,17Z"/><path class="cls-1" d="M2.84,6.67H.35A.35.35,0,0,1,0,6.45.34.34,0,0,1,.1,6.07L3.48,2.69a.34.34,0,0,1,.38-.07.35.35,0,0,1,.22.32V5.5A1.21,1.21,0,0,1,2.84,6.67ZM1.19,6H2.84a.51.51,0,0,0,.54-.47V3.78Z"/><path class="cls-1" d="M9.22,9H3a.34.34,0,0,1-.35-.35A.35.35,0,0,1,3,8.29H9.22a.35.35,0,0,1,.35.35A.34.34,0,0,1,9.22,9Z"/><path class="cls-1" d="M9.22,10.66H3A.35.35,0,1,1,3,10H9.22a.35.35,0,0,1,0,.7Z"/><path class="cls-1" d="M9.22,12.33H3A.35.35,0,0,1,2.6,12,.34.34,0,0,1,3,11.63H9.22a.34.34,0,0,1,.35.35A.35.35,0,0,1,9.22,12.33Z"/><path class="cls-1" d="M14,13.74H12.66a.35.35,0,0,1-.35-.35.35.35,0,0,1,.35-.35H14a.47.47,0,0,0,.5-.43V1.13A.47.47,0,0,0,14,.7H5.16a.46.46,0,0,0-.5.43v.51a.35.35,0,0,1-.7,0V1.13A1.17,1.17,0,0,1,5.16,0H14a1.17,1.17,0,0,1,1.2,1.13V12.61A1.17,1.17,0,0,1,14,13.74Z"/></g></g></svg>