<svg xmlns="http://www.w3.org/2000/svg" viewBox="0 0 18.57 17.2"><defs><style>.cls-1{fill:#006cff;}</style></defs><title>dashboard</title><g id="Layer_2" data-name="Layer 2"><g id="Layer_1-2" data-name="Layer 1"><path class="cls-1" d="M18.12,17.2H.45A.45.45,0,0,1,0,16.75V.45A.45.45,0,0,1,.45,0H18.12a.45.45,0,0,1,.45.45v16.3A.45.45,0,0,1,18.12,17.2Zm-10.4-.9h10V.9H7.74V16.17A.59.59,0,0,1,7.72,16.3Zm-6.81,0h6a.31.31,0,0,1,0-.13V.9H.91ZM15.24,7.43H12.17a.45.45,0,1,1,0-.9h3.07a.45.45,0,1,1,0,.9Zm-10,2.87H2.57a.45.45,0,0,1,0-.9H5.19a.45.45,0,0,1,0,.9Zm0-2.87H2.57A.45.45,0,0,1,2.12,7V3.91a.45.45,0,0,1,.45-.45H5.19a.45.45,0,0,1,.45.45V7A.45.45,0,0,1,5.19,7.43ZM3,6.53H4.74V4.36H3ZM15.24,4.36H12.17a.45.45,0,1,1,0-.9h3.07a.45.45,0,1,1,0,.9Z"/></g></g></svg>