<svg xmlns="http://www.w3.org/2000/svg" viewBox="0 0 26.99 25"><defs><style>.cls-1{fill:#706d6d;}</style></defs><title>dashboard-dark</title><g id="Layer_2" data-name="Layer 2"><g id="Layer_1-2" data-name="Layer 1"><path class="cls-1" d="M26.33,25H.66A.65.65,0,0,1,0,24.34V.66A.65.65,0,0,1,.66,0H26.33A.65.65,0,0,1,27,.66V24.34A.65.65,0,0,1,26.33,25ZM11.22,23.69H25.67V1.31H11.25V23.49A.69.69,0,0,1,11.22,23.69Zm-9.91,0H10a.69.69,0,0,1,0-.2V1.31H1.31ZM22.14,10.8H17.68a.66.66,0,1,1,0-1.31h4.46a.66.66,0,1,1,0,1.31ZM7.54,15H3.74a.66.66,0,0,1,0-1.32h3.8a.66.66,0,0,1,0,1.32Zm0-4.17H3.74a.65.65,0,0,1-.66-.66V5.68A.66.66,0,0,1,3.74,5h3.8a.67.67,0,0,1,.66.66v4.46A.66.66,0,0,1,7.54,10.8ZM4.39,9.49H6.88V6.34H4.39ZM22.14,6.34H17.68a.66.66,0,0,1,0-1.32h4.46a.66.66,0,0,1,0,1.32Z"/></g></g></svg>