<svg xmlns="http://www.w3.org/2000/svg" viewBox="0 0 23.72 30"><defs><style>.cls-1{fill:#006cff;}</style></defs><title>Asset 8</title><g id="Layer_2" data-name="Layer 2"><g id="Layer_1-2" data-name="Layer 1"><path class="cls-1" d="M22.93,30H5.26a.78.78,0,0,1-.78-.78V25.44a.78.78,0,0,1,.78-.78h0a.78.78,0,0,1,.79.78v3h16.1V6.35H14.23a.78.78,0,0,1-.79-.78.79.79,0,0,1,.79-.79h8.7a.79.79,0,0,1,.79.79V29.22A.78.78,0,0,1,22.93,30ZM5.26,21.75A5.27,5.27,0,0,1,0,16.48V3A3,3,0,1,1,6.05,3V14.08a.79.79,0,0,1-1.57,0V3A1.46,1.46,0,0,0,3,1.57,1.48,1.48,0,0,0,1.57,3V16.48a3.75,3.75,0,0,0,3.69,3.7A3.7,3.7,0,0,0,9,16.48V5.57a.79.79,0,1,1,1.57,0V16.48A5.28,5.28,0,0,1,5.26,21.75Z"/></g></g></svg>