<svg xmlns="http://www.w3.org/2000/svg" xmlns:xlink="http://www.w3.org/1999/xlink" viewBox="0 0 12.13 20"><defs><style>.Graphic-Style-5{fill:url(#linear-gradient);}.Graphic-Style-4{fill:url(#linear-gradient-2);}</style><linearGradient id="linear-gradient" x1="1.46" y1="18.14" x2="10.9" y2="4.15" gradientUnits="userSpaceOnUse"><stop offset="0" stop-color="#ffb300"/><stop offset="0.11" stop-color="#ffac00"/><stop offset="0.27" stop-color="#ff9a00"/><stop offset="0.46" stop-color="#ff7c00"/><stop offset="0.67" stop-color="#ff5100"/><stop offset="0.89" stop-color="#ff1c00"/><stop offset="1" stop-color="red"/></linearGradient><linearGradient id="linear-gradient-2" x1="6.28" y1="20" x2="6.28" gradientUnits="userSpaceOnUse"><stop offset="0" stop-color="#ff9500"/><stop offset="0.66" stop-color="red"/><stop offset="1" stop-color="#b00000"/></linearGradient></defs><title>fire</title><g id="Layer_2" data-name="Layer 2"><g id="Layer_1-2" data-name="Layer 1"><path class="Graphic-Style-5" d="M5.32,20c-3.45-.29-6-4.32-5.18-7.93C1.21,7.16,7.19,4.84,4.73,0,8.44,2.17,9.44,9.6,7.45,11.41a3.07,3.07,0,0,0,2.4-3.19c4.59,4.18,1.29,10.91-1.68,11.31.92-3.35-4.7-3.85-4-7.21C2.31,14.09,3.13,18,5.32,20Z"/><path class="Graphic-Style-4" d="M5.32,20C2,18.4.32,15.26,1.78,11.87c1.16-2.7,2.6-3.07,3.78-4.7A5.73,5.73,0,0,0,4.73,0C8.44,2.17,9.44,9.6,7.45,11.41a3.07,3.07,0,0,0,2.4-3.19c2.85,4.65,1.07,10.08-1.68,11.31,2.07-2.76-4.95-6.12-2.11-8.55a4.72,4.72,0,0,0-1.88,1.34C2.31,14.09,3.13,18,5.32,20Z"/></g></g></svg>