<svg xmlns="http://www.w3.org/2000/svg" viewBox="0 0 40.74 40.75"><defs><style>.cls-1{fill:#006cff;stroke:#006cff;stroke-miterlimit:10;stroke-width:0.75px;fill-rule:evenodd;}</style></defs><title>Asset 5</title><g id="Layer_2" data-name="Layer 2"><g id="Layer_1-2" data-name="Layer 1"><path class="cls-1" d="M8.28,26.44a4.28,4.28,0,0,0-.92,1.38A4.39,4.39,0,0,0,7,29.46H7a4.39,4.39,0,0,0,.32,1.64,4.13,4.13,0,0,0,.92,1.37l0,0a4.34,4.34,0,0,0,4.64.89h0a4.21,4.21,0,0,0,1.37-.91l4-4a10.64,10.64,0,0,1-1.59-.78A11.3,11.3,0,0,1,14.7,26a10.82,10.82,0,0,1-2.36-3.54l0-.09-4,4Zm14.28-3.88h-.13a4.39,4.39,0,0,1-1.64-.32,4.45,4.45,0,0,1-1.38-.92h0A4.45,4.45,0,0,1,18.49,20a4.36,4.36,0,0,1-.32-1.64v-.12h.14a4.24,4.24,0,0,1,3,1.24h0a4.35,4.35,0,0,1,1.24,3v.12Zm-.17-10.25a10.64,10.64,0,0,1,1.59.78A11.3,11.3,0,0,1,26,14.71a10.82,10.82,0,0,1,2.36,3.54l0,.09,4-4h0a4.28,4.28,0,0,0,.92-1.38,4.39,4.39,0,0,0,.32-1.64h0a4.24,4.24,0,0,0-.32-1.64,4,4,0,0,0-.92-1.37l0,0a4.34,4.34,0,0,0-4.64-.89h0a4.21,4.21,0,0,0-1.37.91l-4,4Zm6.84,10.13a11.52,11.52,0,0,0-.41-3l4.39-4.4h0a5.15,5.15,0,0,0,1.15-1.72,5.33,5.33,0,0,0,.4-2h0a5.3,5.3,0,0,0-.4-2,5.15,5.15,0,0,0-1.15-1.72l0,0a5.19,5.19,0,0,0-1.69-1.12,5.43,5.43,0,0,0-4.09,0h0a4.93,4.93,0,0,0-1.71,1.14l-7,7a5.27,5.27,0,0,0-1.14,1.72v0a5.31,5.31,0,0,0-.39,2,5.4,5.4,0,0,0,.41,2.05,5.32,5.32,0,0,0,1.14,1.72h0a5.3,5.3,0,0,0,1.72,1.15,5.58,5.58,0,0,0,2,.4,4.59,4.59,0,0,1-.27.7,4.05,4.05,0,0,1-.8,1.12l0,0-2.14,2.14a9.44,9.44,0,0,1-1.85-.87,9.84,9.84,0,0,1-4-4.65c-.11-.26-.2-.52-.29-.78v0a9.22,9.22,0,0,1-.34-1.47,9.51,9.51,0,0,1-.12-1.51,9.8,9.8,0,0,1,2.89-7h0l7-7,0,0a9.79,9.79,0,0,1,3.16-2.11,10.07,10.07,0,0,1,3.78-.75h0A9.87,9.87,0,0,1,38.56,7.5a10.11,10.11,0,0,1,.74,3.79h0a9.79,9.79,0,0,1-2.87,7l0,0-7,7a9.32,9.32,0,0,1-.74.67c.09-.27.17-.55.24-.82a9.58,9.58,0,0,0,.21-1h0V24h0v0a10.76,10.76,0,0,0,.1-1.49Zm-1.41,5.37A11.08,11.08,0,0,1,26,30.16h0l-7,7,0,0a11,11,0,0,1-7.69,3.17h0a11,11,0,0,1-4.19-.82,10.81,10.81,0,0,1-3.53-2.37A10.78,10.78,0,0,1,.38,29.46h0a10.82,10.82,0,0,1,3.19-7.73l0,0,7-7a12.34,12.34,0,0,1,1.16-1,11.52,11.52,0,0,1,1.16-.76,11.37,11.37,0,0,1,1.78-2.35h0l7-7,0,0a10.71,10.71,0,0,1,3.51-2.33A10.82,10.82,0,0,1,29.45.38h0a10.84,10.84,0,0,1,4.19.83,10.63,10.63,0,0,1,3.53,2.36,10.89,10.89,0,0,1,3.19,7.72h0A10.93,10.93,0,0,1,37.17,19l0,0-7,7A10.94,10.94,0,0,1,29,27a11.65,11.65,0,0,1-1.16.77Zm-16.31-9.5a11.52,11.52,0,0,0,.41,3L7.53,25.7h0A5.32,5.32,0,0,0,6,29.46H6a5.49,5.49,0,0,0,.4,2,5.15,5.15,0,0,0,1.15,1.72l0,0a5.14,5.14,0,0,0,1.69,1.12,5.43,5.43,0,0,0,4.09,0h0a5.19,5.19,0,0,0,1.72-1.13l7-7a5.27,5.27,0,0,0,1.14-1.72v0a5.31,5.31,0,0,0,.39-2,5.53,5.53,0,0,0-.4-2,5.45,5.45,0,0,0-1.15-1.73h0a5.32,5.32,0,0,0-1.72-1.14,5.48,5.48,0,0,0-2-.41,4.59,4.59,0,0,1,.27-.7,3.89,3.89,0,0,1,.81-1.12l0,0,2.14-2.14a9.72,9.72,0,0,1,1.85.87,9.84,9.84,0,0,1,4,4.65c.11.26.2.52.29.78v0a10.45,10.45,0,0,1,.34,1.47,10.84,10.84,0,0,1,.11,1.51,9.8,9.8,0,0,1-2.89,7h0l-7,7,0,0a9.8,9.8,0,0,1-6.94,2.86h0a9.84,9.84,0,0,1-3.78-.75,10,10,0,0,1-5.33-5.32,10.11,10.11,0,0,1-.74-3.79h0a10.12,10.12,0,0,1,.75-3.79,9.79,9.79,0,0,1,2.14-3.19l0,0,7-7c.24-.24.49-.46.74-.67-.09.27-.17.55-.24.82a9.29,9.29,0,0,0-.21,1.05h0v.12h0v0A10.76,10.76,0,0,0,11.51,18.31Z"/></g></g></svg>