<svg xmlns="http://www.w3.org/2000/svg" viewBox="0 0 46.47 40"><defs><style>.cls-1{fill:#006cff;}</style></defs><title>Asset 6</title><g id="Layer_2" data-name="Layer 2"><g id="Layer_1-2" data-name="Layer 1"><path class="cls-1" d="M36,18.86A9.8,9.8,0,1,0,23.7,5h-.28c-.22,0-.43,0-.64,0A9.79,9.79,0,1,0,10.49,18.86a13.53,13.53,0,0,0-6.35,3.85A16.25,16.25,0,0,0,0,34a1,1,0,0,0,.3.72A1.06,1.06,0,0,0,1,35H9.64a18.5,18.5,0,0,0-.44,4,1,1,0,0,0,1,1H36.62a1,1,0,0,0,1-1,18.5,18.5,0,0,0-.44-4h8.26a1.06,1.06,0,0,0,.72-.29,1,1,0,0,0,.3-.72,16.25,16.25,0,0,0-4.14-11.26A13.57,13.57,0,0,0,36,18.86ZM14.21,2a7.75,7.75,0,0,1,5.5,2.28,7.53,7.53,0,0,1,.92,1.11,9.8,9.8,0,0,0-7,9.4A9.91,9.91,0,0,0,14,17.56,7.77,7.77,0,0,1,14.21,2Zm18,0a7.76,7.76,0,0,1,.57,15.51A9.77,9.77,0,0,0,25.9,5.35,7.67,7.67,0,0,1,32.25,2ZM28.91,9.32a7.79,7.79,0,1,1-5.49-2.27A7.78,7.78,0,0,1,28.91,9.32ZM15.39,20.44a9.88,9.88,0,0,0,4.3,3.44,13.59,13.59,0,0,0-6.35,3.84A15.1,15.1,0,0,0,10.21,33H2.07a14,14,0,0,1,3.56-8.86,11.58,11.58,0,0,1,8.58-3.71A11.37,11.37,0,0,1,15.39,20.44Zm-.57,8.67a11.79,11.79,0,0,1,17.19,0A14,14,0,0,1,35.56,38H11.27A14,14,0,0,1,14.82,29.11Zm18.67-1.39a13.54,13.54,0,0,0-6.35-3.84,9.83,9.83,0,0,0,4.31-3.46c.27,0,.53,0,.8,0a11.59,11.59,0,0,1,8.59,3.71A14,14,0,0,1,44.39,33H36.62A15.1,15.1,0,0,0,33.49,27.72Z"/></g></g></svg>