<svg xmlns="http://www.w3.org/2000/svg" viewBox="0 0 17.65 16.86"><defs><style>.cls-1{fill:#006cff;}</style></defs><title>logout</title><g id="Layer_2" data-name="Layer 2"><g id="Layer_1-2" data-name="Layer 1"><path class="cls-1" d="M11.34,16.86H.53A.52.52,0,0,1,0,16.34V.52A.52.52,0,0,1,.53,0H11.34a.52.52,0,0,1,.53.52V7.91h4l-1.3-1.3a.54.54,0,0,1,0-.75.53.53,0,0,1,.74,0l2.2,2.2a.51.51,0,0,1,0,.74L15.29,11a.52.52,0,0,1-.74-.74L15.85,9h-4v7.38A.52.52,0,0,1,11.34,16.86Zm-10.29-1h9.76V9H5.43a.52.52,0,0,1-.52-.53.52.52,0,0,1,.52-.52h5.38V1.05H1.05Z"/></g></g></svg>