<svg xmlns="http://www.w3.org/2000/svg" xmlns:xlink="http://www.w3.org/1999/xlink" viewBox="0 0 146.71 38.64"><defs><style>.cls-1{fill:#fff;}.cls-2{fill:url(#Безымянный_градиент_2);}.cls-3,.cls-4,.cls-5{fill:#fdfdfd;isolation:isolate;}.cls-3{opacity:0.2;}.cls-4{opacity:0.3;}.cls-5{opacity:0.5;}</style><linearGradient id="Безымянный_градиент_2" y1="-4349.1" x2="38.58" y2="-4349.1" gradientTransform="matrix(1, 0, 0, -1, 0, -4329.78)" gradientUnits="userSpaceOnUse"><stop offset="0" stop-color="#006cff"/><stop offset="1" stop-color="aqua"/></linearGradient></defs><title>Asset 1</title><g id="Layer_2" data-name="Layer 2"><g id="Layer_1-2" data-name="Layer 1"><path class="cls-1" d="M136.57,29.47a10.15,10.15,0,1,1,10.14-10.15A10.16,10.16,0,0,1,136.57,29.47Zm0-18.32a8.17,8.17,0,1,0,8.17,8.17A8.17,8.17,0,0,0,136.57,11.15Z"/><path class="cls-1" d="M74.86,29.47h-13V9.17h13l4.74,5.14-5.59,5,5.59,5Zm-11.06-2H74l2.8-3-5.75-5.15,5.75-5.15-2.8-3H63.8Z"/><polygon class="cls-1" points="117.31 29.47 115.33 29.47 115.33 11.15 109.48 11.15 109.48 9.17 117.31 9.17 117.31 29.47"/><rect class="cls-1" x="120.03" y="9.17" width="5.76" height="1.97"/><polygon class="cls-1" points="95.24 29.47 95.24 11.15 89.4 11.15 89.4 9.17 97.22 9.17 97.22 29.47 95.24 29.47"/><rect class="cls-1" x="99.94" y="9.17" width="5.76" height="1.97"/><rect class="cls-1" x="83.49" y="9.17" width="1.97" height="20.29"/><polygon class="cls-2" points="28.92 38.64 38.58 28.98 28.92 19.32 38.58 9.66 38.58 9.66 38.58 9.66 38.58 9.66 28.92 0 28.92 0 0 0 0 38.64 28.92 38.64"/><polygon class="cls-3" points="9.6 19.32 19.26 0.06 28.92 19.32 19.26 38.64 9.6 19.32"/><polygon class="cls-4" points="0 38.64 0 19.32 28.92 19.32 0 38.64"/><polygon class="cls-5" points="0 0 0 19.32 28.92 19.32 0 0"/></g></g></svg>