<svg xmlns="http://www.w3.org/2000/svg" viewBox="0 0 26 20.11"><defs><style>.cls-1{fill:#706d6d;}</style></defs><title>one-click-dark</title><g id="Layer_2" data-name="Layer 2"><g id="Layer_1-2" data-name="Layer 1"><path class="cls-1" d="M20.45,20.11H5.55A2.64,2.64,0,0,1,3,17.5V12.15L1.2,13.9a.7.7,0,0,1-1-1L3.15,10a.7.7,0,0,1,1,0L7.09,12.9a.7.7,0,0,1-1,1L4.35,12.15V17.5a1.23,1.23,0,0,0,1.2,1.2h14.9a1.22,1.22,0,0,0,1.2-1.2v-3a.7.7,0,0,1,.7-.7.7.7,0,0,1,.71.7v3A2.65,2.65,0,0,1,20.45,20.11Zm1.9-9.76h0a.7.7,0,0,1-.5-.2L18.91,7.2a.7.7,0,0,1,1-1L21.65,8V2.6a1.22,1.22,0,0,0-1.2-1.19H5.55A1.21,1.21,0,0,0,4.35,2.6v3a.7.7,0,1,1-1.4,0v-3A2.6,2.6,0,0,1,5.55,0h14.9a2.64,2.64,0,0,1,2.61,2.6V8L24.8,6.21a.7.7,0,1,1,1,1l-2.94,3A.7.7,0,0,1,22.35,10.35Z"/><path class="cls-1" d="M13.32,14.88a.76.76,0,0,1-.76-.76V7.82l-1,.95A.76.76,0,0,1,10.54,7.7l2.25-2.25a.72.72,0,0,1,.82-.16.74.74,0,0,1,.47.7v8.13A.76.76,0,0,1,13.32,14.88Z"/></g></g></svg>