<?xml version="1.0" encoding="utf-8"?>
<!-- Generator: Adobe Illustrator 22.1.0, SVG Export Plug-In . SVG Version: 6.00 Build 0)  -->
<svg version="1.1" id="Layer_1" xmlns="http://www.w3.org/2000/svg" xmlns:xlink="http://www.w3.org/1999/xlink" x="0px" y="0px"
	 viewBox="0 0 26 20.1" style="enable-background:new 0 0 26 20.1;" xml:space="preserve">
<style type="text/css">
	.st0{enable-background:new    ;}
	.st1{fill:#FFFFFF;}
	.st2{fill:#006CFF;}
</style>
<title>one-click</title>
<g id="Layer_2_1_">
	<g id="Layer_1-2">
		<text transform="matrix(1 0 0 1 1178.59 270.19)" class="st1" style="font-family:'OpenSans-Bold'; font-size:13.33px;">BUY NOW</text>
		<path class="st2" d="M20.5,20.1H5.6c-1.4,0-2.5-1.2-2.6-2.6v-5.4l-1.8,1.8c-0.3,0.3-0.7,0.3-1,0s-0.3-0.7,0-1l3-2.9
			c0.3-0.3,0.7-0.3,1,0c0,0,0,0,0,0l2.9,2.9c0.3,0.3,0.3,0.7,0,1s-0.7,0.3-1,0l-1.7-1.8v5.4c0,0.7,0.5,1.2,1.2,1.2h14.9
			c0.7,0,1.2-0.5,1.2-1.2v-3c0-0.4,0.3-0.7,0.7-0.7l0,0c0.4,0,0.7,0.3,0.7,0.7c0,0,0,0,0,0v3C23,18.9,21.9,20.1,20.5,20.1z
			 M22.4,10.4L22.4,10.4c-0.2,0-0.4-0.1-0.5-0.2l-2.9-3c-0.3-0.3-0.3-0.7,0-1s0.7-0.3,1,0l0,0L21.6,8V2.6c0-0.7-0.5-1.2-1.2-1.2H5.6
			c-0.7,0-1.2,0.5-1.2,1.2v3C4.3,6,4,6.3,3.6,6.3C3.3,6.3,2.9,6,2.9,5.6v-3C2.9,1.2,4.1,0,5.5,0c0,0,0,0,0,0h14.9
			c1.4,0,2.6,1.2,2.6,2.6V8l1.7-1.8c0.3-0.3,0.7-0.3,1,0s0.3,0.7,0,1l-2.9,3C22.7,10.3,22.5,10.4,22.4,10.4z"/>
		<path class="st2" d="M13.3,14.9c-0.4,0-0.8-0.3-0.8-0.8l0,0V7.8l-1,1c-0.4,0.2-0.8,0.1-1-0.3c-0.1-0.2-0.1-0.6,0-0.8l2.2-2.2
			c0.3-0.3,0.8-0.3,1.1,0C14,5.6,14.1,5.8,14.1,6v8.1C14.1,14.5,13.7,14.9,13.3,14.9z"/>
	</g>
</g>
</svg>
