<svg xmlns="http://www.w3.org/2000/svg" viewBox="0 0 14.78 19.55"><defs><style>.cls-1{fill:#fff;}</style></defs><title>orders</title><g id="Layer_2" data-name="Layer 2"><g id="Layer_1-2" data-name="Layer 1"><path class="cls-1" d="M14.23,19.55H.55A.56.56,0,0,1,0,19V.55A.59.59,0,0,1,.16.16.59.59,0,0,1,.55,0H14.23a.55.55,0,0,1,.55.55V19A.56.56,0,0,1,14.23,19.55ZM1.11,18.44H13.67V4.63H1.11Zm0-14.92H13.67V1.11H1.11Zm9.25,10.37H4.42a.56.56,0,1,1,0-1.11h5.94a.56.56,0,1,1,0,1.11Zm0-3.77H4.42a.55.55,0,1,1,0-1.1h5.94a.55.55,0,1,1,0,1.1Z"/></g></g></svg>