<svg xmlns="http://www.w3.org/2000/svg" viewBox="0 0 26.24 25"><defs><style>.cls-1{fill:#706d6d;}.cls-2{fill:none;stroke:#706d6d;stroke-linecap:round;stroke-miterlimit:10;stroke-width:1.25px;}</style></defs><title>referral-dark</title><g id="Layer_2" data-name="Layer 2"><g id="Layer_1-2" data-name="Layer 1"><path class="cls-1" d="M20.82,25a.7.7,0,0,1-.25-.05l-7.45-3.08L5.67,25A.64.64,0,0,1,5,24.87a.65.65,0,0,1-.27-.58l.62-8L.16,10.12A.66.66,0,0,1,.51,9.05L8.34,7.16,12.55.29a.7.7,0,0,1,1.14,0L17.9,7.16l7.83,1.89a.66.66,0,0,1,.35,1.07l-5.22,6.13.62,8a.67.67,0,0,1-.66.71Zm-7.7-4.51a.7.7,0,0,1,.25.05l6.71,2.77-.57-7.23a.71.71,0,0,1,.16-.48l4.7-5.52-7-1.7a.7.7,0,0,1-.42-.29L13.12,1.91,9.33,8.09a.71.71,0,0,1-.41.29l-7,1.7,4.7,5.52a.71.71,0,0,1,.16.48l-.56,7.23,6.7-2.77A.7.7,0,0,1,13.12,20.49Z"/><polyline class="cls-2" points="10.18 15.03 13.16 12.06 16.06 14.96"/></g></g></svg>