<svg xmlns="http://www.w3.org/2000/svg" viewBox="0 0 35 35"><defs><style>.cls-1{fill:#fff;}</style></defs><title>sun</title><g id="Layer_2" data-name="Layer 2"><g id="Layer_1-2" data-name="Layer 1"><path class="cls-1" d="M17.5,1.75A15.75,15.75,0,1,1,1.75,17.5,15.77,15.77,0,0,1,17.5,1.75M17.5,0A17.5,17.5,0,1,0,35,17.5,17.5,17.5,0,0,0,17.5,0Z"/><path class="cls-1" d="M17.5,24.19a.68.68,0,0,0-.68.69v1.94a.68.68,0,0,0,1.36,0V24.88a.68.68,0,0,0-.68-.69Z"/><path class="cls-1" d="M17.5,10.81a.68.68,0,0,0,.68-.69V8.18a.68.68,0,0,0-1.36,0v1.94a.68.68,0,0,0,.68.69Z"/><path class="cls-1" d="M11.8,22.23l-1.37,1.38a.67.67,0,0,0,0,1,.69.69,0,0,0,.48.2.67.67,0,0,0,.48-.2l1.38-1.37a.69.69,0,0,0-1-1Z"/><path class="cls-1" d="M22.72,13a.71.71,0,0,0,.48-.2l1.37-1.38a.68.68,0,0,0-1-1L22.23,11.8a.7.7,0,0,0,0,1,.71.71,0,0,0,.49.2Z"/><path class="cls-1" d="M10.81,17.5a.68.68,0,0,0-.69-.68H8.18a.68.68,0,0,0,0,1.36h1.94a.68.68,0,0,0,.69-.68Z"/><path class="cls-1" d="M26.82,16.82H24.88a.68.68,0,1,0,0,1.36h1.94a.68.68,0,0,0,0-1.36Z"/><path class="cls-1" d="M11.8,12.77a.69.69,0,0,0,.48.2.71.71,0,0,0,.49-.2.7.7,0,0,0,0-1l-1.38-1.37a.68.68,0,0,0-1,1Z"/><path class="cls-1" d="M23.2,22.23a.69.69,0,0,0-1,1l1.38,1.37a.67.67,0,0,0,.48.2.69.69,0,0,0,.48-.2.67.67,0,0,0,0-1Z"/><path class="cls-1" d="M17.5,12.19a5.31,5.31,0,1,0,5.31,5.31,5.31,5.31,0,0,0-5.31-5.31Zm0,9.26a3.95,3.95,0,1,1,3.95-3.95,4,4,0,0,1-3.95,3.95Z"/></g></g></svg>