<svg xmlns="http://www.w3.org/2000/svg" xmlns:xlink="http://www.w3.org/1999/xlink" viewBox="0 0 35 35"><defs><style>.cls-1{fill:none;}.cls-2{clip-path:url(#clip-path);}.cls-3{fill:#fff;}</style><clipPath id="clip-path" transform="translate(0)"><circle class="cls-1" cx="17.5" cy="17.5" r="17.5"/></clipPath></defs><title>user</title><g id="Layer_2" data-name="Layer 2"><g id="Layer_1-2" data-name="Layer 1"><g class="cls-2"><path class="cls-3" d="M20.25,23.08a7.23,7.23,0,1,0-5.5,0,10.08,10.08,0,0,0-4.69,2.84A12,12,0,0,0,7,34.23a.75.75,0,0,0,.75.75H27.24a.75.75,0,0,0,.75-.75,12,12,0,0,0-3-8.31A10.08,10.08,0,0,0,20.25,23.08ZM11.77,16.4a5.74,5.74,0,1,1,1.68,4.05A5.71,5.71,0,0,1,11.77,16.4Zm-.61,10.54a8.7,8.7,0,0,1,12.68,0,10.34,10.34,0,0,1,2.62,6.54H8.54A10.34,10.34,0,0,1,11.16,26.94Z" transform="translate(0)"/></g><path class="cls-3" d="M17.5,1.75A15.75,15.75,0,1,1,1.75,17.5,15.77,15.77,0,0,1,17.5,1.75M17.5,0A17.5,17.5,0,1,0,35,17.5,17.49,17.49,0,0,0,17.5,0Z" transform="translate(0)"/></g></g></svg>