<svg xmlns="http://www.w3.org/2000/svg" xmlns:xlink="http://www.w3.org/1999/xlink" viewBox="0 0 26.25 26.96"><defs><style>.cls-1,.cls-4{fill:none;}.cls-2{clip-path:url(#clip-path);}.cls-3{fill:#706d6d;}.cls-4{stroke:#706d6d;stroke-miterlimit:10;stroke-width:1.25px;}</style><clipPath id="clip-path"><circle class="cls-1" cx="13.13" cy="13.13" r="12.5"/></clipPath></defs><title>user-dark</title><g id="Layer_2" data-name="Layer 2"><g id="Layer_1-2" data-name="Layer 1"><g class="cls-2"><path class="cls-3" d="M15.23,17.84a5.55,5.55,0,1,0-4.21,0A7.71,7.71,0,0,0,7.42,20a9.24,9.24,0,0,0-2.34,6.37.58.58,0,0,0,.17.41.62.62,0,0,0,.41.16H20.59A.6.6,0,0,0,21,26.8a.58.58,0,0,0,.17-.41A9.24,9.24,0,0,0,18.83,20,7.71,7.71,0,0,0,15.23,17.84Zm-6.5-5.12A4.4,4.4,0,1,1,10,15.82,4.37,4.37,0,0,1,8.73,12.72ZM8.26,20.8a6.69,6.69,0,0,1,9.73,0,7.87,7.87,0,0,1,2,5H6.26A7.92,7.92,0,0,1,8.26,20.8Z"/></g><circle class="cls-4" cx="13.13" cy="13.13" r="12.5"/></g></g></svg>