<svg xmlns="http://www.w3.org/2000/svg" viewBox="0 0 15.17 19.54"><defs><style>.cls-1{fill:#fff;}</style></defs><title>wallet</title><g id="Layer_2" data-name="Layer 2"><g id="Layer_1-2" data-name="Layer 1"><path class="cls-1" d="M15.17,1.79v16a1.81,1.81,0,0,1-1.79,1.78H2.8A1.81,1.81,0,0,1,1,17.76V13.31H.51A.51.51,0,0,1,0,12.8V6.75a.51.51,0,0,1,.51-.51H1V1.79A1.79,1.79,0,0,1,2.8,0H13.38A1.79,1.79,0,0,1,15.17,1.79ZM2,17.76a.79.79,0,0,0,.77.77H13.38a.79.79,0,0,0,.77-.77v-16A.78.78,0,0,0,13.38,1H2.8A.77.77,0,0,0,2,1.79V6.24H5.48a3.54,3.54,0,1,1,0,7.07H2ZM1,12.29H5.48A2.56,2.56,0,0,0,8,9.77,2.52,2.52,0,0,0,5.48,7.26H1ZM6,9.77a.51.51,0,0,1-.52.51H4.06a.51.51,0,1,1,0-1H5.48A.51.51,0,0,1,6,9.77Z"/></g></g></svg>