<svg width="158" height="24" viewBox="0 0 158 24" fill="none" xmlns="http://www.w3.org/2000/svg">
<path d="M36.5591 16.9724V12.4815C36.5586 11.9276 36.4489 11.3793 36.2363 10.8679C36.0236 10.3566 35.7123 9.89234 35.32 9.50187C34.9278 9.11139 34.4625 8.80236 33.9507 8.59252C33.4389 8.38268 32.8908 8.27617 32.3378 8.27909H32.1532C31.2414 8.27909 30.3277 8.59339 29.8848 9.14066V3.81594C29.8905 3.68208 29.8692 3.54843 29.822 3.42305C29.7749 3.29767 29.7029 3.18315 29.6103 3.08638C29.5178 2.98961 29.4067 2.91261 29.2837 2.86C29.1606 2.80739 29.0283 2.78027 28.8945 2.78027C28.7607 2.78027 28.6284 2.80739 28.5053 2.86C28.3823 2.91261 28.2712 2.98961 28.1787 3.08638C28.0861 3.18315 28.0141 3.29767 27.967 3.42305C27.9198 3.54843 27.8985 3.68208 27.9042 3.81594V20.2338C27.9042 20.8606 28.4008 21.1749 28.8954 21.1749C29.1246 21.1876 29.3503 21.1144 29.5284 20.9694C29.7065 20.8245 29.8244 20.6182 29.8589 20.391C30.2281 20.7607 30.9793 21.1749 32.0997 21.1749H32.3359C33.4515 21.1764 34.5221 20.7349 35.3133 19.9472C36.1046 19.1595 36.5519 18.0898 36.5572 16.9724H36.5591ZM34.5767 16.9724C34.5767 17.266 34.5186 17.5566 34.4057 17.8275C34.2928 18.0984 34.1273 18.3441 33.9189 18.5505C33.7104 18.7568 33.4632 18.9197 33.1915 19.0297C32.9198 19.1396 32.629 19.1945 32.3359 19.191H32.0997C30.9276 19.191 29.8848 18.4071 29.8848 17.1277V12.2726C29.8848 11.0727 30.9276 10.2629 32.0997 10.2629H32.3359C32.629 10.2595 32.9198 10.3143 33.1915 10.4243C33.4632 10.5343 33.7104 10.6972 33.9189 10.9035C34.1273 11.1099 34.2928 11.3556 34.4057 11.6265C34.5186 11.8974 34.5767 12.188 34.5767 12.4815V16.9724ZM44.8706 20.182C44.8775 20.0499 44.8566 19.9178 44.8092 19.7943C44.7618 19.6708 44.689 19.5587 44.5955 19.4652C44.5021 19.3717 44.39 19.299 44.2666 19.2518C44.1432 19.2046 44.0113 19.1839 43.8794 19.191C43.4962 19.1862 43.1306 19.0297 42.8622 18.7557C42.5939 18.4817 42.4446 18.1124 42.4471 17.7286V3.81594C42.4529 3.68208 42.4315 3.54843 42.3844 3.42305C42.3372 3.29767 42.2652 3.18315 42.1727 3.08638C42.0801 2.98961 41.969 2.91261 41.846 2.86C41.723 2.80739 41.5906 2.78027 41.4568 2.78027C41.3231 2.78027 41.1907 2.80739 41.0677 2.86C40.9446 2.91261 40.8335 2.98961 40.741 3.08638C40.6485 3.18315 40.5765 3.29767 40.5293 3.42305C40.4821 3.54843 40.4608 3.68208 40.4666 3.81594V17.7286C40.4629 18.1799 40.5485 18.6274 40.7184 19.0453C40.8882 19.4633 41.1391 19.8434 41.4563 20.1638C41.7736 20.4842 42.1511 20.7385 42.5669 20.912C42.9828 21.0856 43.4289 21.1749 43.8794 21.1749C44.0115 21.1821 44.1435 21.1613 44.2671 21.114C44.3906 21.0667 44.5027 20.9938 44.5963 20.9001C44.6898 20.8064 44.7625 20.6941 44.8098 20.5703C44.8571 20.4466 44.8778 20.3143 44.8706 20.182ZM56.2313 16.9724V12.4815C56.2316 11.9296 56.1232 11.383 55.9124 10.873C55.7017 10.3631 55.3927 9.8997 55.003 9.50942C54.6134 9.11914 54.1508 8.80959 53.6417 8.59849C53.1326 8.38738 52.5869 8.27885 52.0359 8.27909H51.7756C51.2246 8.27885 50.6789 8.38738 50.1698 8.59849C49.6607 8.80959 49.1981 9.11914 48.8085 9.50942C48.4188 9.8997 48.1098 10.3631 47.899 10.873C47.6883 11.383 47.5799 11.9296 47.5802 12.4815V16.9724C47.5799 17.5244 47.6883 18.0709 47.899 18.5809C48.1098 19.0909 48.4188 19.5543 48.8085 19.9445C49.1981 20.3348 49.6607 20.6444 50.1698 20.8555C50.6789 21.0666 51.2246 21.1751 51.7756 21.1749H52.0359C52.5869 21.1751 53.1326 21.0666 53.6417 20.8555C54.1508 20.6444 54.6134 20.3348 55.003 19.9445C55.3927 19.5543 55.7017 19.0909 55.9124 18.5809C56.1232 18.0709 56.2316 17.5244 56.2313 16.9724ZM54.2508 16.9724C54.2508 17.5608 54.0174 18.1252 53.6021 18.5412C53.1867 18.9573 52.6233 19.191 52.0359 19.191H51.8015C51.5084 19.1945 51.2176 19.1396 50.9459 19.0297C50.6742 18.9197 50.427 18.7568 50.2185 18.5505C50.0101 18.3441 49.8447 18.0984 49.7317 17.8275C49.6188 17.5566 49.5607 17.266 49.5607 16.9724V12.4815C49.5607 11.8931 49.794 11.3288 50.2094 10.9127C50.6248 10.4967 51.1882 10.2629 51.7756 10.2629H52.0359C52.6233 10.2629 53.1867 10.4967 53.6021 10.9127C54.0174 11.3288 54.2508 11.8931 54.2508 12.4815V16.9724ZM68.2455 16.9724C68.2529 16.8389 68.2326 16.7052 68.1858 16.58C68.139 16.4547 68.0667 16.3406 67.9735 16.2448C67.8803 16.149 67.7682 16.0736 67.6444 16.0235C67.5206 15.9734 67.3877 15.9496 67.2543 15.9537C67.1221 15.9542 66.9914 15.981 66.8698 16.0327C66.7481 16.0844 66.638 16.1599 66.5459 16.2548C66.4537 16.3497 66.3814 16.462 66.3332 16.5852C66.2849 16.7085 66.2617 16.8401 66.2649 16.9724C66.2133 18.1982 65.2738 19.191 64.05 19.191H63.8156C63.5226 19.1945 63.2318 19.1396 62.96 19.0297C62.6883 18.9197 62.4411 18.7568 62.2327 18.5505C62.0243 18.3441 61.8588 18.0984 61.7459 17.8275C61.6329 17.5566 61.5748 17.266 61.5748 16.9724V12.4815C61.5748 11.8931 61.8082 11.3288 62.2236 10.9127C62.6389 10.4967 63.2023 10.2629 63.7898 10.2629H64.05C65.2738 10.2629 66.2133 11.1763 66.2649 12.5074C66.2788 12.7633 66.3909 13.0039 66.5777 13.1789C66.7646 13.3539 67.0118 13.4498 67.2676 13.4464C67.5234 13.4431 67.768 13.3408 67.9502 13.161C68.1325 12.9811 68.2383 12.7377 68.2455 12.4815C68.2416 11.3682 67.7983 10.3015 67.0123 9.51427C66.2264 8.727 65.1615 8.28299 64.05 8.27909H63.7916C63.2404 8.2786 62.6946 8.38696 62.1852 8.59796C61.6759 8.80895 61.2131 9.11846 60.8232 9.50876C60.4334 9.89907 60.1242 10.3625 59.9134 10.8726C59.7025 11.3827 59.5941 11.9294 59.5943 12.4815V16.9724C59.5941 17.5245 59.7025 18.0713 59.9134 18.5813C60.1242 19.0914 60.4334 19.5549 60.8232 19.9452C61.2131 20.3355 61.6759 20.645 62.1852 20.856C62.6946 21.067 63.2404 21.1754 63.7916 21.1749H64.05C64.601 21.1751 65.1467 21.0666 65.6558 20.8555C66.1649 20.6444 66.6275 20.3348 67.0172 19.9445C67.4068 19.5543 67.7158 19.0909 67.9266 18.5809C68.1373 18.0709 68.2457 17.5244 68.2455 16.9724ZM80.7284 20.182C80.7347 20.0075 80.6891 19.8351 80.5974 19.6865L77.0295 13.4226L80.2614 9.97634C80.3525 9.88852 80.4248 9.7831 80.4739 9.66646C80.5231 9.54983 80.5482 9.42442 80.5475 9.29781C80.5428 9.02911 80.4341 8.77275 80.2444 8.58272C80.0547 8.39269 79.7987 8.28384 79.5305 8.27909C79.3959 8.28268 79.2636 8.31486 79.1424 8.3735C79.0212 8.43215 78.9137 8.51592 78.8273 8.61928L73.8751 13.8922V3.81594C73.8808 3.68208 73.8595 3.54843 73.8123 3.42305C73.7652 3.29767 73.6931 3.18315 73.6006 3.08638C73.5081 2.98961 73.397 2.91261 73.274 2.86C73.1509 2.80739 73.0186 2.78027 72.8848 2.78027C72.751 2.78027 72.6187 2.80739 72.4956 2.86C72.3726 2.91261 72.2615 2.98961 72.169 3.08638C72.0764 3.18315 72.0044 3.29767 71.9573 3.42305C71.9101 3.54843 71.8888 3.68208 71.8945 3.81594V20.182C71.8888 20.3159 71.9101 20.4495 71.9573 20.5749C72.0044 20.7003 72.0764 20.8148 72.169 20.9116C72.2615 21.0084 72.3726 21.0854 72.4956 21.138C72.6187 21.1906 72.751 21.2177 72.8848 21.2177C73.0186 21.2177 73.1509 21.1906 73.274 21.138C73.397 21.0854 73.5081 21.0084 73.6006 20.9116C73.6931 20.8148 73.7652 20.7003 73.8123 20.5749C73.8595 20.4495 73.8808 20.3159 73.8751 20.182V16.8153L75.6212 14.935L78.8789 20.6516C78.9569 20.807 79.0759 20.9379 79.223 21.0301C79.3701 21.1224 79.5397 21.1724 79.7132 21.1749C79.8454 21.1776 79.9767 21.1539 80.0996 21.1053C80.2225 21.0567 80.3346 20.9841 80.4292 20.8917C80.5238 20.7993 80.5992 20.689 80.6509 20.5671C80.7026 20.4453 80.7295 20.3144 80.7303 20.182H80.7284ZM91.9895 16.9724C91.9969 16.8389 91.9766 16.7052 91.9298 16.58C91.883 16.4547 91.8107 16.3406 91.7175 16.2448C91.6243 16.149 91.5122 16.0736 91.3884 16.0235C91.2646 15.9734 91.1318 15.9496 90.9983 15.9537C90.8661 15.9542 90.7354 15.981 90.6138 16.0327C90.4921 16.0844 90.382 16.1599 90.2899 16.2548C90.1977 16.3497 90.1254 16.462 90.0772 16.5852C90.029 16.7085 90.0058 16.8401 90.009 16.9724C89.9573 18.1982 89.0178 19.191 87.794 19.191H87.5596C87.2664 19.1947 86.9754 19.14 86.7035 19.0302C86.4316 18.9203 86.1841 18.7575 85.9755 18.5511C85.7669 18.3447 85.6012 18.0989 85.4882 17.8279C85.3752 17.5569 85.317 17.2661 85.317 16.9724V12.4815C85.317 11.8931 85.5504 11.3288 85.9657 10.9127C86.3811 10.4967 86.9445 10.2629 87.5319 10.2629H87.794C89.0178 10.2629 89.9573 11.1763 90.009 12.5074C90.0228 12.7633 90.1349 13.0039 90.3218 13.1789C90.5086 13.3539 90.7558 13.4498 91.0116 13.4464C91.2674 13.4431 91.512 13.3408 91.6943 13.161C91.8765 12.9811 91.9823 12.7377 91.9895 12.4815C91.9856 11.3682 91.5423 10.3015 90.7564 9.51427C89.9704 8.727 88.9055 8.28299 87.794 8.27909H87.5319C86.9809 8.27885 86.4352 8.38738 85.9261 8.59849C85.417 8.80959 84.9544 9.11914 84.5648 9.50942C84.1751 9.8997 83.8661 10.3631 83.6553 10.873C83.4446 11.383 83.3362 11.9296 83.3365 12.4815V16.9724C83.3362 17.5244 83.4446 18.0709 83.6553 18.5809C83.8661 19.0909 84.1751 19.5543 84.5648 19.9445C84.9544 20.3348 85.417 20.6444 85.9261 20.8555C86.4352 21.0666 86.9809 21.1751 87.5319 21.1749H87.794C88.345 21.1751 88.8907 21.0666 89.3998 20.8555C89.909 20.6444 90.3716 20.3348 90.7612 19.9445C91.1508 19.5543 91.4598 19.0909 91.6706 18.5809C91.8814 18.0709 91.9897 17.5244 91.9895 16.9724ZM104.288 20.182V12.4815C104.288 11.9296 104.18 11.383 103.969 10.873C103.758 10.3631 103.449 9.8997 103.06 9.50942C102.67 9.11914 102.207 8.80959 101.698 8.59849C101.189 8.38738 100.643 8.27885 100.092 8.27909H99.8838C98.972 8.27909 98.0584 8.59339 97.6154 9.063V3.81594C97.6211 3.68208 97.5998 3.54843 97.5527 3.42305C97.5055 3.29767 97.4335 3.18315 97.341 3.08638C97.2484 2.98961 97.1373 2.91261 97.0143 2.86C96.8913 2.80739 96.7589 2.78027 96.6251 2.78027C96.4914 2.78027 96.359 2.80739 96.236 2.86C96.1129 2.91261 96.0018 2.98961 95.9093 3.08638C95.8168 3.18315 95.7448 3.29767 95.6976 3.42305C95.6504 3.54843 95.6291 3.68208 95.6349 3.81594V20.182C95.6291 20.3159 95.6504 20.4495 95.6976 20.5749C95.7448 20.7003 95.8168 20.8148 95.9093 20.9116C96.0018 21.0084 96.1129 21.0854 96.236 21.138C96.359 21.1906 96.4914 21.2177 96.6251 21.2177C96.7589 21.2177 96.8913 21.1906 97.0143 21.138C97.1373 21.0854 97.2484 21.0084 97.341 20.9116C97.4335 20.8148 97.5055 20.7003 97.5527 20.5749C97.5998 20.4495 97.6211 20.3159 97.6154 20.182V12.3521C97.6154 10.9932 98.7893 10.2629 99.9872 10.2629C101.133 10.2629 102.307 10.9673 102.307 12.4815V20.182C102.302 20.3159 102.323 20.4495 102.37 20.5749C102.417 20.7003 102.489 20.8148 102.582 20.9116C102.674 21.0084 102.785 21.0854 102.908 21.138C103.031 21.1906 103.164 21.2177 103.298 21.2177C103.431 21.2177 103.564 21.1906 103.687 21.138C103.81 21.0854 103.921 21.0084 104.013 20.9116C104.106 20.8148 104.178 20.7003 104.225 20.5749C104.272 20.4495 104.294 20.3159 104.288 20.182ZM117.317 20.1562C117.319 19.924 117.234 19.6995 117.08 19.5261C116.926 19.3527 116.713 19.2425 116.483 19.2169C116.014 19.1393 115.805 18.825 115.805 18.3554V12.2985C115.805 10.054 114.034 8.27909 111.713 8.27909H111.529C110.146 8.27909 108.48 8.83375 107.653 10.7066C107.582 10.8529 107.547 11.0138 107.549 11.1762C107.561 11.4274 107.67 11.6639 107.854 11.8347C108.039 12.0056 108.282 12.0971 108.533 12.0896C108.714 12.0921 108.893 12.0448 109.049 11.9529C109.205 11.861 109.333 11.7279 109.419 11.5682C109.914 10.7066 110.462 10.2629 111.531 10.2629H111.715C112.863 10.2629 113.827 10.8379 113.827 12.378C113.841 12.5302 113.814 12.6834 113.749 12.8217C113.124 13.7092 107.339 12.977 107.156 17.1018V17.4235C107.156 19.8511 109.24 21.1823 111.352 21.1823H111.586C112.619 21.1832 113.618 20.8125 114.401 20.1377C114.739 20.6332 115.287 21.0251 116.173 21.1564C116.232 21.178 116.295 21.1868 116.357 21.1823C116.983 21.1823 117.321 20.6868 117.321 20.1636L117.317 20.1562ZM113.829 16.9798C113.823 17.5709 113.584 18.1357 113.164 18.5513C112.745 18.9668 112.178 19.1995 111.588 19.1984H111.353C110.025 19.1984 109.139 18.494 109.139 17.3699V17.161C109.216 15.3343 111.907 15.4397 113.829 14.9165V16.9798ZM122.428 20.1894V9.28117C122.434 9.14731 122.413 9.01366 122.365 8.88828C122.318 8.76289 122.246 8.64837 122.154 8.55161C122.061 8.45484 121.95 8.37783 121.827 8.32523C121.704 8.27262 121.572 8.2455 121.438 8.2455C121.304 8.2455 121.172 8.27262 121.049 8.32523C120.926 8.37783 120.815 8.45484 120.722 8.55161C120.629 8.64837 120.557 8.76289 120.51 8.88828C120.463 9.01366 120.442 9.14731 120.448 9.28117V20.1894C120.442 20.3233 120.463 20.4569 120.51 20.5823C120.557 20.7077 120.629 20.8222 120.722 20.919C120.815 21.0158 120.926 21.0928 121.049 21.1454C121.172 21.198 121.304 21.2251 121.438 21.2251C121.572 21.2251 121.704 21.198 121.827 21.1454C121.95 21.0928 122.061 21.0158 122.154 20.919C122.246 20.8222 122.318 20.7077 122.365 20.5823C122.413 20.4569 122.434 20.3233 122.428 20.1894ZM135.249 20.1894V12.4815C135.249 9.61027 133.296 8.27909 131.079 8.27909H130.845C129.933 8.27909 129.073 8.59339 128.604 9.063C128.547 8.82216 128.405 8.61032 128.203 8.46704C128.002 8.32377 127.755 8.25886 127.509 8.28445C127.263 8.31004 127.035 8.42438 126.868 8.6061C126.7 8.78783 126.604 9.02451 126.598 9.27193V20.1802C126.592 20.3141 126.613 20.4477 126.66 20.5731C126.708 20.6985 126.78 20.813 126.872 20.9098C126.965 21.0065 127.076 21.0835 127.199 21.1361C127.322 21.1887 127.454 21.2159 127.588 21.2159C127.722 21.2159 127.854 21.1887 127.977 21.1361C128.1 21.0835 128.211 21.0065 128.304 20.9098C128.396 20.813 128.468 20.6985 128.515 20.5731C128.563 20.4477 128.584 20.3141 128.578 20.1802V12.4815C128.584 11.8905 128.823 11.3256 129.243 10.9101C129.662 10.4945 130.229 10.2619 130.819 10.2629H131.052C131.345 10.2592 131.636 10.3139 131.908 10.4238C132.18 10.5336 132.427 10.6965 132.636 10.9028C132.844 11.1092 133.01 11.3551 133.123 11.6261C133.236 11.8971 133.294 12.1878 133.294 12.4815V20.182C133.289 20.3136 133.311 20.4447 133.359 20.5673C133.407 20.6898 133.48 20.8012 133.573 20.8943C133.666 20.9875 133.777 21.0605 133.899 21.1088C134.021 21.157 134.152 21.1795 134.284 21.1749C134.413 21.1787 134.543 21.1554 134.663 21.1065C134.784 21.0575 134.893 20.9841 134.983 20.8907C135.074 20.7974 135.144 20.6861 135.189 20.5641C135.235 20.4421 135.254 20.312 135.247 20.182L135.249 20.1894ZM145.474 20.182V9.27377C145.48 9.13991 145.459 9.00626 145.412 8.88088C145.365 8.7555 145.293 8.64097 145.2 8.54421C145.107 8.44744 144.996 8.37044 144.873 8.31783C144.75 8.26522 144.618 8.2381 144.484 8.2381C144.35 8.2381 144.218 8.26522 144.095 8.31783C143.972 8.37044 143.861 8.44744 143.768 8.54421C143.676 8.64097 143.604 8.7555 143.557 8.88088C143.509 9.00626 143.488 9.13991 143.494 9.27377V20.182C143.488 20.3159 143.509 20.4495 143.557 20.5749C143.604 20.7003 143.676 20.8148 143.768 20.9116C143.861 21.0084 143.972 21.0854 144.095 21.138C144.218 21.1906 144.35 21.2177 144.484 21.2177C144.618 21.2177 144.75 21.1906 144.873 21.138C144.996 21.0854 145.107 21.0084 145.2 20.9116C145.293 20.8148 145.365 20.7003 145.412 20.5749C145.459 20.4495 145.48 20.3159 145.474 20.182ZM158 16.9724V12.4815C158 11.9296 157.892 11.383 157.681 10.873C157.47 10.3631 157.161 9.8997 156.772 9.50942C156.382 9.11914 155.919 8.80959 155.41 8.59849C154.901 8.38738 154.355 8.27885 153.804 8.27909H153.552C153 8.2786 152.454 8.38696 151.945 8.59796C151.436 8.80895 150.973 9.11846 150.583 9.50876C150.193 9.89907 149.884 10.3625 149.673 10.8726C149.462 11.3827 149.354 11.9294 149.354 12.4815V16.9724C149.354 17.5245 149.462 18.0713 149.673 18.5813C149.884 19.0914 150.193 19.5549 150.583 19.9452C150.973 20.3355 151.436 20.645 151.945 20.856C152.454 21.067 153 21.1754 153.552 21.1749H153.812C154.923 21.1734 155.989 20.7299 156.774 19.9419C157.559 19.1539 158 18.0858 158 16.9724ZM156.019 16.9724C156.019 17.5608 155.786 18.1252 155.371 18.5412C154.955 18.9573 154.392 19.191 153.804 19.191H153.57C153.277 19.1945 152.986 19.1396 152.714 19.0297C152.443 18.9197 152.195 18.7568 151.987 18.5505C151.779 18.3441 151.613 18.0984 151.5 17.8275C151.387 17.5566 151.329 17.266 151.329 16.9724V12.4815C151.329 11.8931 151.563 11.3288 151.978 10.9127C152.393 10.4967 152.957 10.2629 153.544 10.2629H153.804C154.392 10.2629 154.955 10.4967 155.371 10.9127C155.786 11.3288 156.019 11.8931 156.019 12.4815V16.9724Z" fill="#454CA0"/>
<path d="M10.1535 11.0081C9.95791 11.0084 9.76682 11.0669 9.60436 11.176C9.44191 11.2851 9.31539 11.44 9.2408 11.6211C9.1662 11.8022 9.14687 12.0014 9.18525 12.1935C9.22363 12.3856 9.318 12.562 9.45644 12.7004C9.59487 12.8388 9.77116 12.933 9.96302 12.9711C10.1549 13.0092 10.3537 12.9895 10.5344 12.9144C10.715 12.8394 10.8695 12.7123 10.9781 12.5494C11.0867 12.3865 11.1447 12.195 11.1447 11.999C11.1442 11.736 11.0396 11.484 10.8537 11.2982C10.6679 11.1124 10.4161 11.0081 10.1535 11.0081Z" fill="#454CA0"/>
<path d="M14.7274 8.25513C14.5313 8.25476 14.3395 8.31268 14.1762 8.42155C14.013 8.53042 13.8857 8.68535 13.8104 8.86674C13.7351 9.04812 13.7152 9.24781 13.7532 9.44052C13.7912 9.63324 13.8855 9.81032 14.024 9.94935C14.1626 10.0884 14.3392 10.1831 14.5315 10.2216C14.7238 10.26 14.9232 10.2405 15.1044 10.1654C15.2857 10.0903 15.4406 9.96306 15.5496 9.79975C15.6586 9.63644 15.7167 9.44441 15.7167 9.24796C15.7162 8.98512 15.6119 8.73315 15.4265 8.54711C15.2412 8.36108 14.9898 8.25611 14.7274 8.25513Z" fill="#454CA0"/>
<path d="M19.3047 5.50415C19.109 5.50598 18.9182 5.5658 18.7564 5.67608C18.5946 5.78636 18.469 5.94216 18.3954 6.12384C18.3219 6.30551 18.3036 6.50494 18.3431 6.69697C18.3825 6.88899 18.4778 7.06503 18.617 7.20288C18.7561 7.34074 18.9329 7.43423 19.1251 7.47159C19.3172 7.50895 19.5161 7.48849 19.6966 7.4128C19.8772 7.3371 20.0313 7.20957 20.1396 7.04626C20.2479 6.88295 20.3055 6.69119 20.3051 6.49514C20.3046 6.23214 20.2 5.98009 20.0141 5.79429C19.8283 5.6085 19.5765 5.50415 19.3139 5.50415" fill="#454CA0"/>
<path d="M5.56968 2.75295C5.37341 2.75258 5.18145 2.8106 5.01813 2.91963C4.8548 3.02867 4.72748 3.18382 4.65228 3.36542C4.57709 3.54702 4.55742 3.74689 4.59575 3.93971C4.63409 4.13252 4.72871 4.30959 4.86763 4.44848C5.00654 4.58737 5.18349 4.68182 5.37606 4.71986C5.56862 4.7579 5.76812 4.73782 5.94928 4.66216C6.13044 4.5865 6.28509 4.45867 6.39364 4.29487C6.50219 4.13108 6.55974 3.93869 6.55901 3.74209C6.55852 3.47941 6.45414 3.22763 6.26871 3.04189C6.08328 2.85615 5.83192 2.75159 5.56968 2.7511" fill="#454CA0"/>
<path d="M10.1523 0C9.95628 0 9.76464 0.0582289 9.60164 0.167323C9.43864 0.276417 9.3116 0.431477 9.23658 0.612894C9.16156 0.794312 9.14193 0.993938 9.18018 1.18653C9.21842 1.37912 9.31282 1.55603 9.45144 1.69488C9.59006 1.83373 9.76667 1.92829 9.95894 1.9666C10.1512 2.00491 10.3505 1.98524 10.5316 1.9101C10.7127 1.83495 10.8675 1.7077 10.9764 1.54443C11.0854 1.38116 11.1435 1.1892 11.1435 0.992837C11.143 0.72967 11.0384 0.477422 10.8526 0.291335C10.6669 0.105248 10.415 0.000488704 10.1523 0Z" fill="#454CA0"/>
<path d="M10.1538 5.50415C9.95766 5.50415 9.76595 5.56243 9.60291 5.6716C9.43988 5.78078 9.31284 5.93595 9.23787 6.11747C9.16291 6.299 9.14338 6.49872 9.18178 6.69136C9.22017 6.884 9.31476 7.06091 9.45356 7.19968C9.59236 7.33846 9.76915 7.43287 9.96154 7.47097C10.1539 7.50907 10.3533 7.48915 10.5344 7.41372C10.7154 7.33829 10.8701 7.21075 10.9788 7.04723C11.0875 6.88372 11.1453 6.69158 11.145 6.49514C11.1445 6.23214 11.0398 5.98009 10.854 5.79429C10.6682 5.6085 10.4163 5.50415 10.1538 5.50415Z" fill="#454CA0"/>
<path d="M14.7274 2.75295C14.5311 2.75258 14.3392 2.8106 14.1758 2.91963C14.0125 3.02867 13.8852 3.18382 13.81 3.36542C13.7348 3.54702 13.7151 3.74689 13.7535 3.93971C13.7918 4.13252 13.8864 4.30959 14.0253 4.44848C14.1643 4.58737 14.3412 4.68182 14.5338 4.71986C14.7263 4.7579 14.9258 4.73782 15.107 4.66216C15.2882 4.5865 15.4428 4.45867 15.5514 4.29487C15.6599 4.13108 15.7175 3.93869 15.7167 3.74209C15.7162 3.47941 15.6119 3.22763 15.4264 3.04189C15.241 2.85615 14.9896 2.75159 14.7274 2.7511" fill="#454CA0"/>
<path d="M14.7274 13.7593C14.5312 13.7589 14.3393 13.8169 14.176 13.9258C14.0128 14.0348 13.8854 14.1898 13.8102 14.3713C13.7349 14.5528 13.7151 14.7526 13.7533 14.9454C13.7915 15.1381 13.886 15.3152 14.0247 15.4542C14.1634 15.5931 14.3402 15.6877 14.5326 15.726C14.7251 15.7642 14.9245 15.7444 15.1057 15.669C15.2869 15.5936 15.4417 15.4661 15.5505 15.3026C15.6592 15.139 15.7171 14.9468 15.7167 14.7503C15.7162 14.4876 15.6119 14.2358 15.4264 14.0501C15.241 13.8643 14.9896 13.7598 14.7274 13.7593Z" fill="#454CA0"/>
<path d="M19.3049 11.0081C19.1097 11.0102 18.9196 11.0702 18.7583 11.1804C18.5971 11.2906 18.472 11.4462 18.3988 11.6274C18.3256 11.8087 18.3076 12.0076 18.347 12.1991C18.3865 12.3906 18.4815 12.5661 18.6203 12.7036C18.7591 12.8411 18.9354 12.9344 19.127 12.9717C19.3186 13.0091 19.517 12.9888 19.6971 12.9135C19.8772 12.8382 20.0311 12.7112 20.1393 12.5484C20.2476 12.3857 20.3053 12.1946 20.3053 11.999C20.3053 11.8688 20.2797 11.7397 20.2298 11.6194C20.18 11.499 20.107 11.3897 20.0149 11.2977C19.9228 11.2056 19.8136 11.1327 19.6933 11.083C19.5731 11.0333 19.4442 11.0078 19.3141 11.0081" fill="#454CA0"/>
<path d="M14.7274 19.2615C14.5313 19.2611 14.3395 19.319 14.1762 19.4279C14.013 19.5368 13.8857 19.6917 13.8104 19.8731C13.7351 20.0545 13.7152 20.2542 13.7532 20.4469C13.7912 20.6396 13.8855 20.8167 14.024 20.9557C14.1626 21.0947 14.3392 21.1895 14.5315 21.2279C14.7238 21.2664 14.9232 21.2468 15.1044 21.1718C15.2857 21.0967 15.4406 20.9694 15.5496 20.8061C15.6586 20.6428 15.7167 20.4508 15.7167 20.2543C15.7162 19.9915 15.6119 19.7395 15.4265 19.5535C15.2412 19.3674 14.9898 19.2625 14.7274 19.2615Z" fill="#454CA0"/>
<path d="M19.3047 16.5103C19.1086 16.5103 18.917 16.5685 18.754 16.6776C18.591 16.7867 18.4639 16.9417 18.3889 17.1231C18.3139 17.3046 18.2943 17.5042 18.3325 17.6968C18.3708 17.8894 18.4652 18.0663 18.6038 18.2051C18.7424 18.344 18.919 18.4385 19.1113 18.4769C19.3036 18.5152 19.5028 18.4955 19.684 18.4204C19.8651 18.3452 20.0199 18.218 20.1288 18.0547C20.2377 17.8914 20.2958 17.6995 20.2958 17.5031C20.2958 17.2398 20.1914 16.9872 20.0055 16.801C19.8196 16.6149 19.5675 16.5103 19.3047 16.5103Z" fill="#454CA0"/>
<path d="M10.1538 22.0144C9.95766 22.0144 9.76595 22.0727 9.60291 22.1819C9.43988 22.291 9.31284 22.4462 9.23787 22.6277C9.16291 22.8093 9.14338 23.009 9.18178 23.2016C9.22017 23.3943 9.31476 23.5712 9.45356 23.7099C9.59236 23.8487 9.76915 23.9431 9.96154 23.9812C10.1539 24.0193 10.3533 23.9994 10.5344 23.924C10.7154 23.8485 10.8701 23.721 10.9788 23.5575C11.0875 23.394 11.1453 23.2018 11.145 23.0054C11.1445 22.7424 11.0398 22.4903 10.854 22.3045C10.6682 22.1188 10.4163 22.0144 10.1538 22.0144Z" fill="#454CA0"/>
<path d="M10.1538 16.5103C9.95774 16.5103 9.76611 16.5685 9.60311 16.6776C9.44011 16.7867 9.31307 16.9417 9.23805 17.1231C9.16303 17.3046 9.1434 17.5042 9.18164 17.6968C9.21989 17.8894 9.31429 18.0663 9.45291 18.2051C9.59153 18.344 9.76814 18.4385 9.96041 18.4769C10.1527 18.5152 10.352 18.4955 10.5331 18.4204C10.7142 18.3452 10.869 18.218 10.9779 18.0547C11.0868 17.8914 11.145 17.6995 11.145 17.5031C11.1445 17.2399 11.0399 16.9877 10.8541 16.8016C10.6683 16.6155 10.4165 16.5107 10.1538 16.5103Z" fill="#454CA0"/>
<path d="M5.57066 8.25513C5.37455 8.25476 5.18273 8.31268 5.01949 8.42155C4.85625 8.53042 4.72892 8.68535 4.65362 8.86674C4.57831 9.04812 4.55842 9.24781 4.59646 9.44052C4.63449 9.63324 4.72875 9.81032 4.86729 9.94935C5.00584 10.0884 5.18245 10.1831 5.37477 10.2216C5.56709 10.26 5.76647 10.2405 5.9477 10.1654C6.12892 10.0903 6.28383 9.96306 6.39282 9.79975C6.50182 9.63644 6.56 9.44441 6.56 9.24796C6.55951 8.98512 6.45518 8.73315 6.2698 8.54711C6.08442 8.36108 5.83307 8.25611 5.57066 8.25513Z" fill="#454CA0"/>
<path d="M5.57066 19.2615C5.37455 19.2611 5.18273 19.319 5.01949 19.4279C4.85625 19.5368 4.72892 19.6917 4.65362 19.8731C4.57831 20.0545 4.55842 20.2542 4.59646 20.4469C4.63449 20.6396 4.72875 20.8167 4.86729 20.9557C5.00584 21.0947 5.18245 21.1895 5.37477 21.2279C5.56709 21.2664 5.76647 21.2468 5.9477 21.1718C6.12892 21.0967 6.28383 20.9694 6.39282 20.8061C6.50182 20.6428 6.56 20.4508 6.56 20.2543C6.55951 19.9915 6.45518 19.7395 6.2698 19.5535C6.08442 19.3674 5.83307 19.2625 5.57066 19.2615Z" fill="#454CA0"/>
<path d="M5.57066 13.7592C5.37447 13.7588 5.18258 13.8168 5.0193 13.9257C4.85602 14.0347 4.72869 14.1897 4.65344 14.3712C4.57819 14.5527 4.55841 14.7525 4.59659 14.9452C4.63478 15.138 4.72922 15.3151 4.86795 15.454C5.00668 15.593 5.18346 15.6876 5.3759 15.7258C5.56834 15.7641 5.76779 15.7443 5.94898 15.6689C6.13017 15.5935 6.28495 15.466 6.39372 15.3024C6.50249 15.1389 6.56036 14.9467 6.55999 14.7501C6.55951 14.4875 6.45512 14.2357 6.26969 14.05C6.08426 13.8642 5.8329 13.7596 5.57066 13.7592Z" fill="#454CA0"/>
<path d="M0.991179 5.50403C0.795063 5.50403 0.603356 5.5623 0.440317 5.67148C0.277279 5.78066 0.150238 5.93583 0.0752724 6.11735C0.000306913 6.29888 -0.0192135 6.4986 0.0191812 6.69124C0.0575759 6.88388 0.15216 7.06078 0.290964 7.19956C0.429768 7.33834 0.606551 7.43275 0.798943 7.47085C0.991334 7.50895 1.19069 7.48902 1.37177 7.4136C1.55285 7.33817 1.70752 7.21062 1.81621 7.04711C1.9249 6.8836 1.98272 6.69146 1.98236 6.49502C1.98187 6.23202 1.87723 5.97996 1.6914 5.79417C1.50557 5.60838 1.25374 5.50403 0.991179 5.50403Z" fill="#454CA0"/>
<path d="M0.991181 16.5103C0.795144 16.5103 0.603509 16.5685 0.44051 16.6776C0.277512 16.7867 0.15047 16.9417 0.0754495 17.1231C0.000429477 17.3046 -0.0191992 17.5042 0.0190457 17.6968C0.0572906 17.8894 0.151691 18.0663 0.29031 18.2051C0.428929 18.344 0.605541 18.4385 0.797811 18.4769C0.990081 18.5152 1.18937 18.4955 1.37049 18.4204C1.5516 18.3452 1.7064 18.218 1.81532 18.0547C1.92423 17.8914 1.98236 17.6995 1.98236 17.5031C1.98187 17.2399 1.87729 16.9877 1.69151 16.8016C1.50573 16.6155 1.25391 16.5107 0.991181 16.5103Z" fill="#454CA0"/>
<path d="M0.991395 11.0081C0.795802 11.0084 0.604706 11.0669 0.442254 11.176C0.279802 11.2851 0.153284 11.44 0.0786868 11.6211C0.0040894 11.8022 -0.0152399 12.0014 0.023142 12.1935C0.0615238 12.3856 0.155894 12.562 0.294328 12.7004C0.432763 12.8388 0.609048 12.933 0.800909 12.9711C0.99277 13.0092 1.1916 12.9895 1.37227 12.9144C1.55294 12.8394 1.70734 12.7123 1.81597 12.5494C1.9246 12.3865 1.98257 12.195 1.98258 11.999C1.98209 11.736 1.87744 11.484 1.69161 11.2982C1.50578 11.1124 1.25395 11.0081 0.991395 11.0081Z" fill="#454CA0"/>
<path d="M121.419 2.76953C121.222 2.76953 121.03 2.82798 120.866 2.93748C120.702 3.04698 120.575 3.20262 120.5 3.38471C120.424 3.5668 120.405 3.76717 120.443 3.96048C120.481 4.15379 120.576 4.33135 120.715 4.47072C120.854 4.61009 121.032 4.705 121.225 4.74345C121.418 4.7819 121.618 4.76217 121.799 4.68674C121.981 4.61132 122.137 4.48359 122.246 4.31971C122.355 4.15583 122.414 3.96316 122.414 3.76607C122.413 3.50192 122.308 3.24873 122.122 3.06195C121.935 2.87517 121.682 2.77002 121.419 2.76953Z" fill="#454CA0"/>
<path d="M144.474 2.76953C144.278 2.76953 144.085 2.82798 143.922 2.93748C143.758 3.04698 143.631 3.20262 143.555 3.38471C143.48 3.5668 143.46 3.76717 143.499 3.96048C143.537 4.15379 143.632 4.33135 143.771 4.47072C143.91 4.61009 144.087 4.705 144.28 4.74345C144.473 4.7819 144.673 4.76217 144.855 4.68674C145.037 4.61132 145.192 4.48359 145.302 4.31971C145.411 4.15583 145.469 3.96316 145.469 3.76607C145.469 3.50192 145.364 3.24873 145.177 3.06195C144.991 2.87517 144.738 2.77002 144.474 2.76953Z" fill="#454CA0"/>
<path d="M139.25 19.2615C139.054 19.2615 138.863 19.3197 138.7 19.4288C138.537 19.5379 138.41 19.693 138.335 19.8744C138.26 20.0558 138.24 20.2554 138.278 20.448C138.317 20.6406 138.411 20.8175 138.55 20.9564C138.688 21.0952 138.865 21.1898 139.057 21.2281C139.249 21.2664 139.449 21.2467 139.63 21.1716C139.811 21.0964 139.966 20.9692 140.075 20.8059C140.184 20.6426 140.242 20.4507 140.242 20.2543C140.242 19.991 140.137 19.7385 139.951 19.5523C139.765 19.3661 139.513 19.2615 139.25 19.2615Z" fill="#454CA0"/>
</svg>
